<svg width="97" height="13" viewBox="0 0 97 13" fill="none" xmlns="http://www.w3.org/2000/svg">
<path d="M50.3951 5.85954C51.0183 6.1387 51.5044 6.50316 51.8536 6.95291C52.2028 7.40267 52.3774 7.92222 52.3774 8.51156C52.3774 9.66955 51.9825 10.52 51.1929 11.0628C50.4032 11.6056 49.4174 11.877 48.2355 11.877H44.2871V0.46245H47.7682C49.0252 0.46245 50.0137 0.708008 50.7335 1.19912C51.4534 1.69024 51.8133 2.40106 51.8133 3.33159C51.8133 3.90025 51.6898 4.39912 51.4426 4.8282C51.1955 5.25728 50.8464 5.60106 50.3951 5.85954ZM46.6239 5.13062H48.0422C48.4719 5.13062 48.805 5.00397 49.0414 4.75065C49.2777 4.49734 49.3959 4.18458 49.3959 3.81237C49.3959 3.42981 49.2616 3.13773 48.993 2.93612C48.7244 2.7345 48.3537 2.63369 47.881 2.63369H46.6239V5.13062ZM48.1227 9.78329C48.6707 9.78329 49.1139 9.67731 49.4523 9.46535C49.7908 9.2534 49.96 8.93547 49.96 8.51156C49.96 7.7051 49.2938 7.30186 47.9616 7.30186H46.6239V9.78329H48.1227ZM56.2452 6.18522C56.2452 5.1513 56.5165 4.18458 57.0591 3.28506C57.6017 2.38555 58.3377 1.66956 59.267 1.13708C60.1964 0.604614 61.2036 0.338379 62.2888 0.338379C63.3739 0.338379 64.3812 0.604614 65.3105 1.13708C66.2399 1.66956 66.9812 2.38555 67.5346 3.28506C68.0879 4.18458 68.3645 5.1513 68.3645 6.18522C68.3645 7.23983 68.0879 8.21172 67.5346 9.10089C66.9812 9.99007 66.2399 10.6957 65.3105 11.2179C64.3812 11.74 63.3739 12.0011 62.2888 12.0011C61.1929 12.0011 60.1829 11.74 59.259 11.2179C58.335 10.6957 57.6017 9.99007 57.0591 9.10089C56.5165 8.21172 56.2452 7.23983 56.2452 6.18522ZM58.6627 6.18522C58.6627 6.84694 58.8265 7.45695 59.1542 8.01527C59.4819 8.57359 59.9278 9.0156 60.4918 9.34128C61.0559 9.66697 61.6817 9.82981 62.3694 9.82981C63.0355 9.82981 63.6425 9.66697 64.1905 9.34128C64.7384 9.0156 65.1682 8.57618 65.4798 8.02303C65.7913 7.46988 65.9471 6.85728 65.9471 6.18522C65.9471 5.50283 65.786 4.88248 65.4636 4.32416C65.1413 3.76584 64.7035 3.32384 64.1502 2.99815C63.5969 2.67247 62.9818 2.50962 62.3049 2.50962C61.628 2.50962 61.0129 2.67247 60.4596 2.99815C59.9063 3.32384 59.4685 3.76584 59.1461 4.32416C58.8238 4.88248 58.6627 5.50283 58.6627 6.18522ZM72.9576 0.46245H76.5032C78.0181 0.46245 79.2644 0.744194 80.2421 1.30768C81.2198 1.87117 81.9316 2.60009 82.3775 3.49443C82.8234 4.38878 83.0463 5.34775 83.0463 6.37133C83.0463 7.46729 82.7777 8.43401 82.2405 9.27149C81.7033 10.109 80.9808 10.7526 80.0729 11.2023C79.165 11.6521 78.1685 11.877 77.0833 11.877H72.9576V0.46245ZM76.6804 9.70574C77.8945 9.70574 78.8561 9.4059 79.5652 8.80622C80.2743 8.20655 80.6289 7.34322 80.6289 6.21624C80.6289 5.30639 80.4328 4.58264 80.0406 4.045C79.6485 3.50736 79.1919 3.13515 78.6708 2.92836C78.1497 2.72157 77.6582 2.61818 77.1962 2.61818H75.2945V9.70574H76.6804ZM96.6966 0.46245L92.2486 8.32545V11.877H89.9118V8.32545L85.5443 0.46245H88.4291L91.1527 5.73547L93.8118 0.46245H96.6966Z" fill="#111111"/>
<path d="M8.09028 0.450708V2.62655H2.33683V5.0666H7.42952V7.24244H2.33683V9.71357H8.3159V11.8894H0V0.450708H8.09028ZM23.6745 0.450708V12.3557H23.6101L15.3103 5.12877L15.3586 11.8894H12.9896V0H13.0863L21.3699 7.33569L21.3216 0.450708H23.6745ZM38.6141 10.7393C38.4315 10.9258 38.1065 11.1201 37.6391 11.3221C37.1718 11.5242 36.656 11.69 36.092 11.8195C35.5279 11.949 35.0149 12.0137 34.5529 12.0137C33.2958 12.0137 32.1919 11.778 31.241 11.3066C30.2902 10.8352 29.5569 10.1824 29.0412 9.34834C28.5255 8.51427 28.2676 7.56364 28.2676 6.49644C28.2676 5.15985 28.5416 4.02789 29.0895 3.10057C29.6375 2.17325 30.3735 1.47905 31.2974 1.01798C32.2214 0.556911 33.2421 0.326376 34.3595 0.326376C35.0794 0.326376 35.7562 0.404083 36.3901 0.559502C37.024 0.714918 37.5827 0.91696 38.0662 1.16563L37.3087 3.26376C36.9972 3.09798 36.5701 2.94516 36.0275 2.80528C35.4849 2.6654 35.031 2.59546 34.6657 2.59546C33.3764 2.59546 32.3907 2.9063 31.7084 3.52797C31.0262 4.14964 30.685 5.07178 30.685 6.2944C30.685 6.99895 30.8516 7.61285 31.1846 8.13609C31.5177 8.65933 31.9824 9.06082 32.5787 9.34057C33.175 9.62033 33.8545 9.7602 34.6174 9.7602C35.348 9.7602 35.8905 9.66177 36.2451 9.46491V8.08169H34.1983V5.90585H38.6141V10.7393Z" fill="#EB51C2"/>
</svg>
