<svg width="87" height="19" viewBox="0 0 87 19" fill="none" xmlns="http://www.w3.org/2000/svg">
<path d="M45.3714 12.6166C45.9317 12.865 46.3688 13.1893 46.6827 13.5894C46.9967 13.9896 47.1537 14.4519 47.1537 14.9762C47.1537 16.0066 46.7987 16.7632 46.0887 17.2462C45.3787 17.7292 44.4924 17.9707 43.4298 17.9707H39.8799V7.81449H43.0096C44.1398 7.81449 45.0285 8.03298 45.6757 8.46995C46.3229 8.90693 46.6465 9.53939 46.6465 10.3673C46.6465 10.8733 46.5354 11.3172 46.3133 11.699C46.0911 12.0807 45.7771 12.3866 45.3714 12.6166ZM41.9809 11.968H43.256C43.6423 11.968 43.9418 11.8553 44.1543 11.63C44.3668 11.4046 44.4731 11.1263 44.4731 10.7951C44.4731 10.4547 44.3523 10.1948 44.1108 10.0155C43.8694 9.83607 43.5361 9.74637 43.1111 9.74637H41.9809V11.968ZM43.3284 16.1078C43.8211 16.1078 44.2195 16.0135 44.5238 15.8249C44.8281 15.6363 44.9802 15.3534 44.9802 14.9762C44.9802 14.2587 44.3813 13.8999 43.1835 13.8999H41.9809V16.1078H43.3284ZM50.6312 12.9064C50.6312 11.9864 50.8751 11.1263 51.3629 10.3259C51.8507 9.52559 52.5124 8.88853 53.348 8.41476C54.1835 7.94099 55.0891 7.7041 56.0648 7.7041C57.0404 7.7041 57.946 7.94099 58.7815 8.41476C59.6171 8.88853 60.2836 9.52559 60.7811 10.3259C61.2786 11.1263 61.5273 11.9864 61.5273 12.9064C61.5273 13.8447 61.2786 14.7095 60.7811 15.5006C60.2836 16.2918 59.6171 16.9196 58.7815 17.3842C57.946 17.8488 57.0404 18.0811 56.0648 18.0811C55.0795 18.0811 54.1714 17.8488 53.3407 17.3842C52.51 16.9196 51.8507 16.2918 51.3629 15.5006C50.8751 14.7095 50.6312 13.8447 50.6312 12.9064ZM52.8046 12.9064C52.8046 13.4951 52.9519 14.0379 53.2465 14.5347C53.5412 15.0314 53.942 15.4247 54.4492 15.7145C54.9563 16.0043 55.519 16.1492 56.1372 16.1492C56.7361 16.1492 57.2819 16.0043 57.7745 15.7145C58.2672 15.4247 58.6536 15.0337 58.9337 14.5416C59.2138 14.0494 59.3539 13.5043 59.3539 12.9064C59.3539 12.2992 59.209 11.7472 58.9192 11.2505C58.6294 10.7537 58.2358 10.3604 57.7383 10.0707C57.2408 9.78087 56.6878 9.63598 56.0792 9.63598C55.4707 9.63598 54.9177 9.78087 54.4202 10.0707C53.9227 10.3604 53.5291 10.7537 53.2393 11.2505C52.9495 11.7472 52.8046 12.2992 52.8046 12.9064ZM65.6569 7.81449H68.8446C70.2066 7.81449 71.3271 8.06518 72.2061 8.56655C73.0852 9.06791 73.7251 9.71647 74.126 10.5122C74.5269 11.308 74.7273 12.1612 74.7273 13.072C74.7273 14.0471 74.4858 14.9072 74.0029 15.6524C73.5199 16.3976 72.8703 16.9702 72.054 17.3704C71.2378 17.7706 70.3418 17.9707 69.3662 17.9707H65.6569V7.81449ZM69.0039 16.0388C70.0955 16.0388 70.96 15.772 71.5976 15.2384C72.2351 14.7049 72.5539 13.9367 72.5539 12.934C72.5539 12.1244 72.3776 11.4805 72.025 11.0021C71.6724 10.5237 71.2619 10.1925 70.7934 10.0086C70.3249 9.82457 69.883 9.73257 69.4676 9.73257H67.7578V16.0388H69.0039ZM87 7.81449L83.0009 14.8107V17.9707H80.8999V14.8107L76.9732 7.81449H79.5669L82.0156 12.5062L84.4064 7.81449H87Z" fill="white"/>
<path d="M7.27377 7.80116V9.73827H2.10099V11.9106H6.6797V13.8477H2.10099V16.0477H7.47663V17.9848H0V7.80116H7.27377ZM21.2852 7.80116V18.3999H21.2272L13.7651 11.9659L13.8086 17.9848H11.6786V7.3999H11.7655L19.2132 13.9307L19.1697 7.80116H21.2852ZM34.717 16.9609C34.5528 17.1269 34.2606 17.2999 33.8404 17.4798C33.4202 17.6597 32.9566 17.8072 32.4494 17.9225C31.9423 18.0378 31.481 18.0955 31.0657 18.0955C29.9355 18.0955 28.9429 17.8856 28.0881 17.4659C27.2332 17.0462 26.5739 16.4651 26.1102 15.7225C25.6466 14.98 25.4147 14.1337 25.4147 13.1836C25.4147 11.9936 25.6611 10.9859 26.1537 10.1603C26.6463 9.33471 27.308 8.71668 28.1388 8.3062C28.9695 7.89571 29.8872 7.69047 30.8918 7.69047C31.539 7.69047 32.1476 7.75965 32.7175 7.89802C33.2874 8.03638 33.7897 8.21626 34.2244 8.43764L33.5434 10.3056C33.2633 10.158 32.8793 10.0219 32.3915 9.89739C31.9036 9.77286 31.4955 9.7106 31.1671 9.7106C30.0079 9.7106 29.1216 9.98732 28.5083 10.5408C27.8949 11.0942 27.5882 11.9152 27.5882 13.0037C27.5882 13.6309 27.7379 14.1775 28.0373 14.6433C28.3368 15.1091 28.7546 15.4666 29.2907 15.7156C29.8268 15.9647 30.4378 16.0892 31.1236 16.0892C31.7805 16.0892 32.2683 16.0016 32.5871 15.8263V14.5949H30.7469V12.6578H34.717V16.9609Z" fill="white"/>
</svg>
